<svg xmlns="http://www.w3.org/2000/svg" viewBox="0 0 1600 1000" width="1600" height="1000" role="img" aria-labelledby="title desc"><title id="title">Flujo de Fichas Técnicas</title><desc id="desc">Cómo pasa el usuario de una búsqueda o navegación a una ficha y qué papel tiene la IA.</desc><defs><style>
.t{font-family:Inter,Segoe UI,Arial,sans-serif;fill:#142033}
.title{font-size:34px;font-weight:750;letter-spacing:-.5px}
.subtitle{font-size:17px;fill:#64748B}
.kicker{font-size:13px;font-weight:700;letter-spacing:1.3px;text-transform:uppercase;fill:#64748B}
.h{font-size:21px;font-weight:720}
.sh{font-size:17px;font-weight:700}
.b{font-size:15px}
.small{font-size:13px}
.muted{fill:#64748B}
.line{stroke:#90A4B7;stroke-width:2.2;fill:none;stroke-linecap:round;stroke-linejoin:round}
.dash{stroke-dasharray:8 7}
</style><marker id="arrow" markerWidth="11" markerHeight="11" refX="9.5" refY="4.5" orient="auto"><path d="M0,0 L0,9 L10,4.5 z" fill="#90A4B7"/></marker><filter id="shadow" x="-20%" y="-20%" width="140%" height="140%"><feDropShadow dx="0" dy="3" stdDeviation="5" flood-color="#0F172A" flood-opacity=".08"/></filter></defs><rect width="1600" height="1000" fill="#F7F9FC"/><text x="80" y="62" class="t title">Flujo de Fichas Técnicas</text><text x="80" y="92" class="t subtitle">Cómo pasa el usuario de una búsqueda o navegación a una ficha y qué papel tiene la IA.</text><rect x="1250" y="44" width="260" height="36" fill="#EEF2F7" stroke="#CBD5E1" stroke-width="1.5" rx="18"/><text x="1380.0" y="68" text-anchor="middle" class="t small" fill="#142033" font-weight="700">CASO DE USO REAL</text><rect x="90" y="140" width="420" height="125" fill="#EAF3FF" stroke="#2D6FB7" stroke-width="2" rx="20" filter="url(#shadow)"/><text x="112" y="170" text-anchor="start" class="t kicker">ENTRADA A</text><text x="112" y="198" text-anchor="start" class="t h">Buscar / abrir referencia</text><text x="112" y="224" text-anchor="start" class="t b" fill="#64748B"><tspan x="112" dy="0">Texto, referencia o deep-link ?ref=…</tspan></text><rect x="560" y="140" width="420" height="125" fill="#EAF3FF" stroke="#2D6FB7" stroke-width="2" rx="20" filter="url(#shadow)"/><text x="582" y="170" text-anchor="start" class="t kicker">ENTRADA B</text><text x="582" y="198" text-anchor="start" class="t h">Navegación guiada</text><text x="582" y="224" text-anchor="start" class="t b" fill="#64748B"><tspan x="582" dy="0">Familia → marca → niveles disponibles</tspan></text><rect x="1030" y="140" width="480" height="125" fill="#EAF3FF" stroke="#2D6FB7" stroke-width="2" rx="20" filter="url(#shadow)"/><text x="1052" y="170" text-anchor="start" class="t kicker">AYUDA DE INTERFAZ</text><text x="1052" y="198" text-anchor="start" class="t h">Breadcrumb + filtros</text><text x="1052" y="224" text-anchor="start" class="t b" fill="#64748B"><tspan x="1052" dy="0">Permiten retroceder o ajustar sin reiniciar</tspan></text><path d="M300 265 L300 315 L720 315 L720 350" stroke="#90A4B7" stroke-width="2.2" fill="none" stroke-linecap="round" stroke-linejoin="round" marker-end="url(#arrow)"/><path d="M770 265 L770 315 L720 315" stroke="#90A4B7" stroke-width="2.2" fill="none" stroke-linecap="round" stroke-linejoin="round"/><path d="M1270 265 L1270 315 L720 315" stroke="#90A4B7" stroke-width="2.2" fill="none" stroke-linecap="round" stroke-linejoin="round" stroke-dasharray="8 7"/><rect x="480" y="360" width="480" height="120" fill="#EAF8F0" stroke="#25805A" stroke-width="2" rx="20" filter="url(#shadow)"/><text x="502" y="390" text-anchor="start" class="t kicker">SERVICIO DE CATÁLOGO</text><text x="502" y="418" text-anchor="start" class="t h">catalogService.ts</text><text x="502" y="444" text-anchor="start" class="t b" fill="#64748B"><tspan x="502" dy="0">Construye consultas y devuelve niveles/productos</tspan><tspan x="502" dy="22">según los datos disponibles en Supabase</tspan></text><line x1="720" y1="480" x2="720" y2="525" stroke="#90A4B7" stroke-width="2.2" fill="none" stroke-linecap="round" marker-end="url(#arrow)"/><rect x="480" y="535" width="480" height="105" fill="#EAF8F0" stroke="#25805A" stroke-width="2" rx="20" filter="url(#shadow)"/><text x="502" y="565" text-anchor="start" class="t kicker">FUENTE DE DATOS</text><text x="502" y="593" text-anchor="start" class="t h">Supabase / catálogo</text><text x="502" y="619" text-anchor="start" class="t b" fill="#64748B"><tspan x="502" dy="0">products · brands · vistas y filtros</tspan></text><line x1="720" y1="640" x2="720" y2="685" stroke="#90A4B7" stroke-width="2.2" fill="none" stroke-linecap="round" marker-end="url(#arrow)"/><rect x="480" y="695" width="480" height="130" fill="#EAF3FF" stroke="#2D6FB7" stroke-width="2" rx="20" filter="url(#shadow)"/><text x="502" y="725" text-anchor="start" class="t kicker">RESULTADO</text><text x="502" y="753" text-anchor="start" class="t h">Ficha de producto</text><text x="502" y="779" text-anchor="start" class="t b" fill="#64748B"><tspan x="502" dy="0">Referencia · nombre · marca · clasificación</tspan><tspan x="502" dy="22">imagen / precio / PDF cuando existen</tspan></text><rect x="85" y="695" width="330" height="190" fill="#FFFFFF" stroke="#C97318" stroke-width="1.7" rx="20"/><text x="110" y="728" text-anchor="start" class="t kicker">ACCIONES DESDE LA FICHA</text><rect x="110" y="750" width="270" height="36" fill="#FFF3E6" stroke="#C97318" stroke-width="1.5" rx="18"/><text x="245.0" y="774" text-anchor="middle" class="t small" fill="#142033" font-weight="700">Abrir PDF disponible</text><rect x="110" y="795" width="270" height="36" fill="#EAF8F0" stroke="#25805A" stroke-width="1.5" rx="18"/><text x="245.0" y="819" text-anchor="middle" class="t small" fill="#142033" font-weight="700">Enviar a Presupuestos</text><rect x="110" y="840" width="270" height="36" fill="#FFFFFF" stroke="#AAB8C6" stroke-width="1.5" rx="18"/><text x="245.0" y="864" text-anchor="middle" class="t small" fill="#142033" font-weight="700">Copiar referencia</text><line x1="480" y1="760" x2="423" y2="760" stroke="#90A4B7" stroke-width="2.2" fill="none" stroke-linecap="round" marker-end="url(#arrow)"/><rect x="1025" y="505" width="490" height="380" fill="#F2ECFF" stroke="#7656B5" stroke-width="2.2" rx="24" filter="url(#shadow)"/><text x="1055" y="540" text-anchor="start" class="t kicker">RAMA OPCIONAL DE IA</text><text x="1055" y="574" text-anchor="start" class="t h">Enriquecimiento auxiliar</text><rect x="1055" y="600" width="430" height="36" fill="#FFFFFF" stroke="#C9B9EC" stroke-width="1.5" rx="18"/><text x="1270.0" y="624" text-anchor="middle" class="t small" fill="#142033" font-weight="700">Datos reales de la ficha</text><line x1="1270" y1="636" x2="1270" y2="665" stroke="#90A4B7" stroke-width="2.2" fill="none" stroke-linecap="round" marker-end="url(#arrow)"/><rect x="1055" y="675" width="430" height="36" fill="#FFFFFF" stroke="#C9B9EC" stroke-width="1.5" rx="18"/><text x="1270.0" y="699" text-anchor="middle" class="t small" fill="#142033" font-weight="700">cliente IA → /api/ai</text><line x1="1270" y1="711" x2="1270" y2="740" stroke="#90A4B7" stroke-width="2.2" fill="none" stroke-linecap="round" marker-end="url(#arrow)"/><rect x="1055" y="750" width="430" height="36" fill="#FFFFFF" stroke="#C9B9EC" stroke-width="1.5" rx="18"/><text x="1270.0" y="774" text-anchor="middle" class="t small" fill="#142033" font-weight="700">parseAIJsonResponse</text><text x="1055" y="815" text-anchor="start" class="t b" fill="#64748B">La respuesta se muestra como contenido auxiliar.</text><text x="1055" y="842" text-anchor="start" class="t small" fill="#7A3E92"><tspan x="1055" dy="0">La aplicación NO demuestra automáticamente la veracidad</tspan><tspan x="1055" dy="19">de normas, especificaciones o consejos generados.</tspan></text><path d="M960 760 L1000 760 L1000 645 L1048 645" stroke="#90A4B7" stroke-width="2.2" fill="none" stroke-linecap="round" stroke-linejoin="round" stroke-dasharray="8 7" marker-end="url(#arrow)"/><text x="1000" y="918" text-anchor="middle" class="t b" fill="#64748B">Para decisiones reales: fabricante + normativa vigente + criterio profesional.</text></svg>